<svg width="266" height="126" viewBox="0 0 266 126" fill="none" xmlns="http://www.w3.org/2000/svg">
<path d="M4.83594 68.4375H26.9453C31.1641 68.4375 34.7969 69.2448 37.8438 70.8594C40.9167 72.4479 43.2474 74.6875 44.8359 77.5781C46.4245 80.4688 47.2188 83.7891 47.2188 87.5391C47.2188 91.3151 46.3984 94.6354 44.7578 97.5C43.1432 100.339 40.7865 102.565 37.6875 104.18C34.6146 105.768 30.9427 106.562 26.6719 106.562H12.4531V97.1094H24.8359C27.1016 97.1094 29.0026 96.7188 30.5391 95.9375C32.1016 95.1302 33.2604 94.0104 34.0156 92.5781C34.7708 91.1458 35.1484 89.4661 35.1484 87.5391C35.1484 85.612 34.7708 83.9453 34.0156 82.5391C33.2604 81.1068 32.1016 80.013 30.5391 79.2578C29.0026 78.4766 27.0885 78.0859 24.7969 78.0859H16.5547V125H4.83594V68.4375ZM65.9688 125H54.4062V68.4375H65.9688V125ZM99.8359 106.68C98.7943 106.706 96.9583 106.81 94.3281 106.992L90.5781 107.305C88.5208 107.461 86.9062 108.021 85.7344 108.984C84.5625 109.922 83.9766 111.198 83.9766 112.812C83.9766 113.854 84.237 114.74 84.7578 115.469C85.3047 116.198 86.0599 116.758 87.0234 117.148C88.013 117.539 89.1198 117.734 90.3438 117.734C92.0885 117.734 93.638 117.396 94.9922 116.719C96.3464 116.016 97.401 115.065 98.1562 113.867C98.9115 112.643 99.2891 111.302 99.2891 109.844L99.2109 96.1328C99.2109 94.9349 98.9505 93.9193 98.4297 93.0859C97.9349 92.2266 97.1667 91.5885 96.125 91.1719C95.1094 90.7292 93.8984 90.5078 92.4922 90.5078C90.5391 90.5078 88.9505 90.9245 87.7266 91.7578C86.5026 92.5651 85.7344 93.7109 85.4219 95.1953H74.4062C74.6667 92.6953 75.5391 90.4557 77.0234 88.4766C78.5339 86.4714 80.6172 84.8958 83.2734 83.75C85.9557 82.6042 89.1198 82.0312 92.7656 82.0312C96.0469 82.0312 99.0417 82.5391 101.75 83.5547C104.458 84.5703 106.633 86.1589 108.273 88.3203C109.94 90.4557 110.773 93.151 110.773 96.4062V125H99.7969V119.141H99.4844C98.7812 120.469 97.8568 121.628 96.7109 122.617C95.5651 123.607 94.1849 124.388 92.5703 124.961C90.9818 125.508 89.1328 125.781 87.0234 125.781C84.2891 125.781 81.8672 125.299 79.7578 124.336C77.6484 123.372 75.9818 121.94 74.7578 120.039C73.5339 118.138 72.9219 115.846 72.9219 113.164C72.9219 108.737 74.3802 105.521 77.2969 103.516C80.2396 101.51 84.0417 100.365 88.7031 100.078C89.4844 100 91.8932 99.8698 95.9297 99.6875L99.7578 99.5312L99.8359 106.68ZM131.125 125H119.562V82.5781H130.578V90H131.047C132.036 87.5 133.625 85.5469 135.812 84.1406C138.026 82.7344 140.695 82.0312 143.82 82.0312C146.763 82.0312 149.328 82.6693 151.516 83.9453C153.703 85.2214 155.396 87.0573 156.594 89.4531C157.818 91.849 158.43 94.6875 158.43 97.9688V125H146.867V99.9609C146.867 98.2161 146.568 96.7318 145.969 95.5078C145.396 94.2578 144.536 93.3073 143.391 92.6562C142.245 91.9792 140.865 91.6406 139.25 91.6406C137.635 91.6406 136.216 91.9922 134.992 92.6953C133.768 93.3724 132.818 94.375 132.141 95.7031C131.464 97.0052 131.125 98.5807 131.125 100.43V125ZM189.719 91.25H164.328V82.5781H189.719V91.25ZM181.75 72.4219V111.953C181.75 113.047 181.906 113.906 182.219 114.531C182.557 115.13 183.013 115.56 183.586 115.82C184.185 116.055 184.914 116.185 185.773 116.211C186.867 116.237 188.378 116.172 190.305 116.016V125.156C188.56 125.443 186.542 125.586 184.25 125.586C181.385 125.586 178.898 125.156 176.789 124.297C174.68 123.411 173.039 122.07 171.867 120.273C170.695 118.477 170.122 116.237 170.148 113.555V72.4219H181.75Z" fill="white"/>
<path d="M203.742 125.703C202.57 125.703 201.477 125.404 200.461 124.805C199.445 124.18 198.651 123.372 198.078 122.383C197.505 121.367 197.219 120.273 197.219 119.102C197.219 117.956 197.505 116.888 198.078 115.898C198.651 114.883 199.445 114.089 200.461 113.516C201.477 112.943 202.57 112.656 203.742 112.656C204.914 112.656 205.995 112.943 206.984 113.516C208 114.089 208.807 114.883 209.406 115.898C210.005 116.888 210.305 117.956 210.305 119.102C210.305 120.273 210.005 121.367 209.406 122.383C208.807 123.372 208 124.18 206.984 124.805C205.995 125.404 204.914 125.703 203.742 125.703ZM203.742 95.9375C202.57 95.9375 201.477 95.638 200.461 95.0391C199.445 94.4141 198.651 93.6068 198.078 92.6172C197.505 91.6016 197.219 90.5078 197.219 89.3359C197.219 88.1901 197.505 87.1224 198.078 86.1328C198.651 85.1172 199.445 84.3229 200.461 83.75C201.477 83.1771 202.57 82.8906 203.742 82.8906C204.914 82.8906 205.995 83.1771 206.984 83.75C208 84.3229 208.807 85.1172 209.406 86.1328C210.005 87.1224 210.305 88.1901 210.305 89.3359C210.305 90.5078 210.005 91.6016 209.406 92.6172C208.807 93.6068 208 94.4141 206.984 95.0391C205.995 95.638 204.914 95.9375 203.742 95.9375ZM219.836 68.4375H242.336C246.372 68.4375 249.797 69.0495 252.609 70.2734C255.422 71.4714 257.531 73.1641 258.938 75.3516C260.37 77.513 261.086 80.0521 261.086 82.9688C261.086 85.1042 260.643 87.0052 259.758 88.6719C258.898 90.3385 257.701 91.7188 256.164 92.8125C254.654 93.8802 252.896 94.6354 250.891 95.0781V95.625C253.052 95.7292 255.083 96.3542 256.984 97.5C258.885 98.6458 260.409 100.247 261.555 102.305C262.701 104.336 263.273 106.706 263.273 109.414C263.273 112.435 262.531 115.117 261.047 117.461C259.562 119.805 257.349 121.654 254.406 123.008C251.49 124.336 247.961 125 243.82 125H219.836V68.4375ZM241.438 115.352C243.651 115.352 245.474 115.065 246.906 114.492C248.365 113.893 249.432 113.073 250.109 112.031C250.786 110.964 251.125 109.701 251.125 108.242C251.125 106.68 250.747 105.273 249.992 104.023C249.237 102.773 248.143 101.823 246.711 101.172C245.305 100.495 243.651 100.156 241.75 100.156H231.555V115.352H241.438ZM240.578 92.1484C242.219 92.1484 243.69 91.849 244.992 91.25C246.32 90.651 247.349 89.8047 248.078 88.7109C248.833 87.6172 249.211 86.3281 249.211 84.8438C249.211 83.4375 248.885 82.2266 248.234 81.2109C247.583 80.1693 246.62 79.375 245.344 78.8281C244.094 78.2552 242.583 77.9688 240.812 77.9688H231.555V92.1484H240.578Z" fill="#F1C734"/>
<path d="M154.766 33.6543L142.518 33.6543C143.765 17.1892 157.506 3.99927 174.171 3.99927L187.025 3.99927C185.645 20.6064 171.729 33.6543 154.766 33.6543Z" stroke="white" stroke-width="8"/>
<path d="M110.371 33.6543L122.619 33.6543C121.361 17.0669 107.504 3.99927 90.5947 3.99927L78.1123 3.99927C79.4918 20.6064 93.4076 33.6543 110.371 33.6543Z" stroke="white" stroke-width="8"/>
</svg>
